<svg version="1.1" id="Layer_1" xmlns="http://www.w3.org/2000/svg" xmlns:xlink="http://www.w3.org/1999/xlink" x="0px" y="0px"
	 width="100%" viewBox="0 0 1024 1024" enable-background="new 0 0 1024 1024" xml:space="preserve">
<path fill="#000000" opacity="1.000000" stroke="none" 
	d="
M575.272156,843.456177 
	C559.983887,846.383606 544.967896,848.439758 529.885315,849.167480 
	C488.959442,851.142334 448.891602,845.681030 409.824860,833.377014 
	C381.909760,824.585205 355.760040,812.050537 330.775696,796.687012 
	C289.631683,771.386230 257.492249,737.282288 230.828247,697.542236 
	C206.585648,661.411011 190.623901,621.825928 181.861816,579.281189 
	C176.089630,551.254150 174.179855,522.866028 175.866364,494.383728 
	C178.682404,446.826263 190.236969,401.502960 212.667938,359.192902 
	C228.422974,329.475189 246.691925,301.495239 270.181732,277.276184 
	C306.846680,239.472977 349.699219,211.438843 399.865234,194.444855 
	C427.468842,185.094025 455.656128,179.690628 484.479950,176.542221 
	C514.172668,173.298920 543.533447,175.398483 572.845276,180.485809 
	C625.355591,189.599380 672.731079,210.510406 715.217529,242.447739 
	C762.940918,278.321686 797.144958,325.031708 821.672974,378.925507 
	C834.534729,407.185699 842.081970,437.167053 846.509460,467.973114 
	C849.437927,488.349548 850.132568,508.796112 849.089417,529.211548 
	C847.298645,564.256775 840.551514,598.441711 828.052612,631.347351 
	C819.209534,654.628113 807.187866,676.180054 793.488708,696.987183 
	C771.376892,730.572205 745.254639,760.275269 712.307617,783.500061 
	C670.878784,812.703796 625.758606,833.752258 575.272156,843.456177 
M563.140137,298.475159 
	C553.484009,296.789429 543.886597,294.536896 534.160278,293.528900 
	C509.298065,290.952118 484.544800,292.613586 460.361572,298.777283 
	C408.153931,312.083649 365.535065,339.987793 333.737579,383.859558 
	C306.239532,421.799255 294.221710,464.897522 292.564240,511.032318 
	C291.768097,533.192932 295.583191,555.019470 302.345642,576.312683 
	C318.977264,628.681274 349.853424,670.372559 396.291168,699.665100 
	C440.685608,727.668579 489.434174,737.801270 541.553772,730.623047 
	C564.961853,727.399231 587.437622,720.776001 608.509094,710.026794 
	C648.584167,689.583313 679.952881,659.847656 702.513550,620.855408 
	C729.902588,573.518311 737.196106,522.766785 726.965149,469.555145 
	C721.264160,439.904388 709.840332,412.286987 692.477966,387.251465 
	C660.753174,341.506073 618.184387,311.686829 563.140137,298.475159 
z"/>
</svg>